Coordinates
version=1
nRows=7
nColumns=46
inDegrees=yes

Units are S.I. units (second, meters, Newtons, ...)
Angles are in degrees.

endheader
time	pelvis_tilt	pelvis_list	pelvis_rotation	pelvis_tx	pelvis_ty	pelvis_tz	bb_angle	bb_tx	bb_ty	bb_tz	hip_flexion_r	hip_adduction_r	hip_rotation_r	knee_angle_r	knee_angle_r_beta	ankle_angle_r	subtalar_angle_r	mtp_angle_r	crank_angle_r	hip_flexion_l	hip_adduction_l	hip_rotation_l	knee_angle_l	knee_angle_l_beta	ankle_angle_l	subtalar_angle_l	mtp_angle_l	crank_angle_l	lumbar_extension	lumbar_bending	lumbar_rotation	arm_flex_r	arm_add_r	arm_rot_r	elbow_flex_r	pro_sup_r	wrist_flex_r	wrist_dev_r	arm_flex_l	arm_add_l	arm_rot_l	elbow_flex_l	pro_sup_l	wrist_flex_l	wrist_dev_l
      0.00500000	    -20.54979552	     -4.93088844	     -1.37076026	      0.10401984	      1.12275182	     -0.23170310	      0.00000000	      0.50000000	      0.00000000	      0.25000000	     91.01154684	     -9.92890449	     -7.94353679	     91.08106982	      1.58966455	     26.08174506	      7.08438212	      0.00000000	      0.00000000	     60.60613434	    -17.61071073	     -6.14360259	     70.95239541	      1.23835291	     11.47222976	     10.22651807	      0.00000000	      0.00000000	    -49.12566424	      4.17141703	      5.55413171	     89.67700860	     -4.14139672	     25.19890976	     35.07909261	     26.61214598	      0.00000000	      0.00000000	     89.72897584	      0.39116832	     23.86012878	     29.71219082	     25.65924018	      0.00000000	      0.00000000
      0.01000000	    -20.56580488	     -4.92818819	     -1.42264274	      0.10399601	      1.12268507	     -0.23157150	      0.00000000	      0.50000000	      0.00000000	      0.25000000	     91.04416883	     -9.85588356	     -7.91314498	     91.08670664	      1.58976294	     26.06789588	      7.10165553	      0.00000000	      0.00000000	     60.62198653	    -17.66942900	     -6.18100676	     70.96533201	      1.23857870	     11.48366498	     10.25416111	      0.00000000	      0.00000000	    -49.08101037	      4.15496933	      5.47541682	     89.68095630	     -4.48347696	     27.19417675	     35.90463111	     22.00345420	      0.00000000	      0.00000000	     89.72949104	     -0.60806472	     27.35985373	     30.97677604	     19.27962349	      0.00000000	      0.00000000
      0.01500000	    -20.56249482	     -4.90186179	     -1.45168179	      0.10403020	      1.12269526	     -0.23150943	      0.00000000	      0.50000000	      0.00000000	      0.25000000	     91.05421943	     -9.82509433	     -7.88390022	     91.09590020	      1.58992339	     26.06063181	      7.09863571	      0.00000000	      0.00000000	     60.59399303	    -17.68867249	     -6.23436302	     70.95477521	      1.23839445	     11.49559614	     10.27660810	      0.00000000	      0.00000000	    -49.07971149	      4.10525764	      5.45020795	     89.68385266	     -4.52167354	     27.30943817	     35.33494776	     24.87599195	      0.00000000	      0.00000000	     89.72892997	     -0.61979463	     27.10816621	     30.37692930	     22.74993478	      0.00000000	      0.00000000
      0.02000000	    -20.72418950	     -5.07031319	     -1.49216751	      0.10367889	      1.12208877	     -0.23112865	      0.00000000	      0.50000000	      0.00000000	      0.25000000	     91.25556757	     -9.69610020	     -8.00994079	     91.11596998	      1.59027368	     25.96919346	      6.91036534	      0.00000000	      0.00000000	     60.89781166	    -17.70131695	     -5.92721645	     71.01002033	      1.23935866	     11.44552295	     10.39484468	      0.00000000	      0.00000000	    -48.88092210	      4.17051711	      5.66325394	     89.67887757	     -4.54252112	     26.88585128	     35.19149348	     25.62127277	      0.00000000	      0.00000000	     89.73068535	     -0.35320496	     26.51378070	     30.11970332	     23.48023779	      0.00000000	      0.00000000
      0.02500000	    -20.66795720	     -4.94833353	     -1.42884352	      0.10370060	      1.12248899	     -0.23153640	      0.00000000	      0.50000000	      0.00000000	      0.25000000	     91.21271582	     -9.76405117	     -7.87638570	     91.12009902	      1.59034574	     26.00837140	      6.86530052	      0.00000000	      0.00000000	     60.78573008	    -17.69685819	     -6.15319061	     71.01970013	      1.23952760	     11.61421624	     10.05896365	      0.00000000	      0.00000000	    -48.95563564	      4.09102185	      5.62992280	     89.67512782	     -4.52659940	     26.30163838	     35.11468161	     26.47165337	      0.00000000	      0.00000000	     89.72983900	     -0.20617392	     26.10965615	     30.09607034	     24.39291312	      0.00000000	      0.00000000
      0.03000000	    -20.67766405	     -4.96222487	     -1.45336828	      0.10368051	      1.12248637	     -0.23145045	      0.00000000	      0.50000000	      0.00000000	      0.25000000	     91.21756970	     -9.73285985	     -7.88474382	     91.11733435	      1.59029749	     25.97307873	      6.83402656	      0.00000000	      0.00000000	     60.80100176	    -17.70568956	     -6.11975339	     71.02058255	      1.23954300	     11.54026506	     10.01774506	      0.00000000	      0.00000000	    -48.93636627	      4.09231001	      5.64692471	     89.67494365	     -4.43877707	     26.07516643	     34.80109298	     27.54192188	      0.00000000	      0.00000000	     89.73103123	     -0.27027535	     25.54311451	     30.02678384	     25.52072394	      0.00000000	      0.00000000
      0.03500000	    -20.68412914	     -4.95668330	     -1.47406087	      0.10369863	      1.12248843	     -0.23140847	      0.00000000	      0.50000000	      0.00000000	      0.25000000	     91.22393761	     -9.70873384	     -7.87749355	     91.11421357	      1.59024302	     25.97318215	      6.84143313	      0.00000000	      0.00000000	     60.79553987	    -17.72532454	     -6.13919357	     71.01365268	      1.23942205	     11.53771037	     10.02745780	      0.00000000	      0.00000000	    -48.91209947	      4.07375378	      5.65768893	     89.67864554	     -4.86767032	     27.40042387	     34.76302568	     28.48896025	      0.00000000	      0.00000000	     89.73315822	     -0.70151783	     27.13756943	     29.92214331	     26.18720240	      0.00000000	      0.00000000
